<svg width="860" height="860" viewBox="0 0 860 860" fill="none" xmlns="http://www.w3.org/2000/svg">
<path d="M462.312 233.797C468.202 233.797 474.936 234.168 482.516 234.911C490.095 235.655 497.571 236.64 504.943 237.868C512.297 239.096 519.032 240.324 525.148 241.551C529.736 242.405 534.273 243.513 538.737 244.873L526.982 304.738C518.189 301.862 509.234 299.514 500.162 297.71C484.299 294.7 468.169 293.337 452.027 293.638C439.302 293.644 426.614 295.009 414.176 297.71C401.672 300.424 393.465 302.275 389.554 303.26V626.221H321.263V258.178C340.983 251.278 361.145 245.723 381.612 241.551C408.166 236.133 435.215 233.533 462.312 233.797Z" fill="#FA9483"/>
<circle cx="538.737" cy="586.934" r="39.2876" fill="white"/>
<circle cx="430" cy="430" r="408" stroke="url(#paint0_linear_22_13)" stroke-width="44"/>
<defs>
<linearGradient id="paint0_linear_22_13" x1="158.865" y1="938.918" x2="855.223" y2="-54.0318" gradientUnits="userSpaceOnUse">
<stop stop-color="#00D2F3"/>
<stop offset="0.3125" stop-color="#5E9FFF"/>
<stop offset="0.591346" stop-color="#BF7BFF"/>
<stop offset="0.850962" stop-color="#FA9483"/>
</linearGradient>
</defs>
</svg>
