<svg width="508" height="508" viewBox="0 0 508 508" fill="none" xmlns="http://www.w3.org/2000/svg">
<g clip-path="url(#clip0_8_5)">
<path d="M254 508C394.28 508 508 394.28 508 254C508 113.72 394.28 0 254 0C113.72 0 0 113.72 0 254C0 394.28 113.72 508 254 508Z" fill="#FA9483"/>
<path d="M392.399 170.873C399.886 170.881 407.064 173.859 412.358 179.153C417.652 184.447 420.63 191.625 420.638 199.112V309.145C420.629 316.632 417.652 323.809 412.358 329.103C407.064 334.397 399.886 337.375 392.399 337.383H115.854C108.367 337.375 101.19 334.397 95.896 329.103C90.6022 323.809 87.6244 316.632 87.616 309.145V199.112C87.6242 191.625 90.6019 184.447 95.8957 179.153C101.19 173.859 108.367 170.881 115.854 170.873H392.399ZM392.399 144.383H115.854C108.667 144.383 101.55 145.799 94.9102 148.549C88.2703 151.299 82.2371 155.331 77.1551 160.413C72.0731 165.495 68.0419 171.528 65.2916 178.168C62.5413 184.808 61.1258 191.925 61.126 199.112L61.126 309.145C61.1258 316.332 62.5413 323.449 65.2916 330.089C68.0419 336.729 72.0731 342.762 77.1551 347.844C82.2371 352.926 88.2703 356.958 94.9102 359.708C101.55 362.458 108.667 363.874 115.854 363.874H392.399C406.914 363.873 420.834 358.107 431.097 347.844C441.36 337.58 447.126 323.66 447.126 309.145V199.112C447.126 184.597 441.36 170.677 431.097 160.413C420.834 150.15 406.914 144.384 392.399 144.383Z" fill="white"/>
<path d="M375.703 230.968C375.703 238.612 373.436 246.085 369.19 252.44C364.943 258.796 358.907 263.75 351.845 266.676C344.782 269.601 337.011 270.367 329.514 268.876C322.017 267.384 315.13 263.704 309.724 258.299C304.319 252.894 300.638 246.007 299.146 238.51C297.654 231.013 298.419 223.242 301.344 216.179C304.269 209.117 309.223 203.08 315.578 198.833C321.934 194.586 329.406 192.319 337.05 192.318C342.126 192.317 347.152 193.317 351.842 195.259C356.532 197.201 360.793 200.048 364.382 203.637C367.971 207.226 370.819 211.487 372.761 216.176C374.703 220.866 375.703 225.892 375.703 230.968Z" fill="white"/>
<path d="M209.855 230.968C209.855 238.612 207.588 246.085 203.341 252.441C199.094 258.797 193.058 263.751 185.995 266.676C178.933 269.601 171.162 270.367 163.664 268.875C156.167 267.384 149.28 263.703 143.875 258.297C138.47 252.892 134.789 246.005 133.297 238.508C131.806 231.01 132.572 223.239 135.497 216.177C138.423 209.114 143.377 203.078 149.733 198.831C156.089 194.584 163.562 192.318 171.206 192.318C176.281 192.318 181.307 193.318 185.997 195.26C190.686 197.202 194.946 200.049 198.535 203.638C202.124 207.227 204.971 211.488 206.913 216.177C208.855 220.867 209.855 225.892 209.855 230.968Z" fill="white"/>
</g>
<defs>
<clipPath id="clip0_8_5">
<rect width="508" height="508" fill="white"/>
</clipPath>
</defs>
</svg>
